<svg width="20" height="20" viewBox="0 0 20 20" fill="none" xmlns="http://www.w3.org/2000/svg">
<path d="M13.9585 2.96675V1.66675C13.9585 1.32508 13.6752 1.04175 13.3335 1.04175C12.9918 1.04175 12.7085 1.32508 12.7085 1.66675V2.91675H7.29187V1.66675C7.29187 1.32508 7.00853 1.04175 6.66687 1.04175C6.3252 1.04175 6.04187 1.32508 6.04187 1.66675V2.96675C3.79187 3.17508 2.7002 4.51675 2.53353 6.50841C2.51687 6.75008 2.71687 6.95008 2.9502 6.95008H17.0502C17.2918 6.95008 17.4918 6.74175 17.4668 6.50841C17.3002 4.51675 16.2085 3.17508 13.9585 2.96675Z" fill="#3B82F6"/>
<path d="M3.25832 8.81665H16.5917C16.6123 8.81665 16.6325 8.8244 16.6499 8.84177C16.6672 8.85914 16.675 8.87937 16.675 8.89995V14.0333C16.675 15.1683 16.3911 15.9996 15.8858 16.5438C15.3898 17.0779 14.5737 17.4499 13.2583 17.4499H6.59165C5.27627 17.4499 4.46013 17.0779 3.96417 16.5438C3.45885 15.9996 3.17499 15.1683 3.17499 14.0333V8.89995C3.17499 8.87937 3.18273 8.85914 3.20009 8.84177C3.21746 8.8244 3.23772 8.81665 3.25832 8.81665Z" stroke="#3B82F6" stroke-width="1.5"/>
</svg>
