<svg width="19" height="22" viewBox="0 0 19 22" fill="none" xmlns="http://www.w3.org/2000/svg">
<path d="M11.8934 19.195C11.8934 18.0007 12.7795 17.0186 13.9223 16.8693C14.07 15.7143 15.0416 14.8186 16.2232 14.8186C17.4047 14.8186 18.3764 15.7143 18.5241 16.8693C18.6407 16.885 18.7495 16.9085 18.8584 16.94C18.3298 13.3728 15.8501 10.45 12.5541 9.30283C13.7979 8.36001 14.6063 6.85927 14.6063 5.17783C14.6063 2.31787 12.3054 0 9.48361 0C6.66184 0 4.36089 2.31787 4.36089 5.17783C4.36089 6.85927 5.16936 8.36001 6.41309 9.30283C2.68963 10.5993 0 14.1664 0 18.3621C7.77344e-08 20.3657 1.61689 22 3.59911 22H14.0388C13.9767 21.8507 13.9456 21.6857 13.9223 21.5207C12.7795 21.3714 11.8934 20.3893 11.8934 19.195Z" fill="#3B82F6"/>
<path d="M18.2227 18.4082H17.0016V17.1744C17.0016 16.7401 16.6536 16.3887 16.2243 16.3887C15.795 16.3887 15.4469 16.7401 15.4469 17.1744V18.4082H14.2259C13.7966 18.4082 13.4485 18.7596 13.4485 19.1939C13.4485 19.6282 13.7966 19.9796 14.2259 19.9796H15.4469V21.2142C15.4469 21.6485 15.795 21.9999 16.2243 21.9999C16.6536 21.9999 17.0016 21.6485 17.0016 21.2142V19.9796H18.2227C18.652 19.9796 19 19.6282 19 19.1939C19 18.7596 18.652 18.4082 18.2227 18.4082Z" fill="#3B82F6"/>
</svg>
